%TF.GenerationSoftware,KiCad,Pcbnew,(6.0.7)*%
%TF.CreationDate,2023-05-11T09:52:43+08:00*%
%TF.ProjectId,ST7920 test,53543739-3230-4207-9465-73742e6b6963,rev?*%
%TF.SameCoordinates,Original*%
%TF.FileFunction,Legend,Top*%
%TF.FilePolarity,Positive*%
%FSLAX46Y46*%
G04 Gerber Fmt 4.6, Leading zero omitted, Abs format (unit mm)*
G04 Created by KiCad (PCBNEW (6.0.7)) date 2023-05-11 09:52:43*
%MOMM*%
%LPD*%
G01*
G04 APERTURE LIST*
%ADD10C,0.150000*%
%ADD11C,0.120000*%
G04 APERTURE END LIST*
D10*
%TO.C,J2*%
X96694666Y-90682380D02*
X96694666Y-91396666D01*
X96647047Y-91539523D01*
X96551809Y-91634761D01*
X96408952Y-91682380D01*
X96313714Y-91682380D01*
X97123238Y-90777619D02*
X97170857Y-90730000D01*
X97266095Y-90682380D01*
X97504190Y-90682380D01*
X97599428Y-90730000D01*
X97647047Y-90777619D01*
X97694666Y-90872857D01*
X97694666Y-90968095D01*
X97647047Y-91110952D01*
X97075619Y-91682380D01*
X97694666Y-91682380D01*
%TO.C,RV1*%
X87085561Y-86381180D02*
X86752228Y-85904990D01*
X86514133Y-86381180D02*
X86514133Y-85381180D01*
X86895085Y-85381180D01*
X86990323Y-85428800D01*
X87037942Y-85476419D01*
X87085561Y-85571657D01*
X87085561Y-85714514D01*
X87037942Y-85809752D01*
X86990323Y-85857371D01*
X86895085Y-85904990D01*
X86514133Y-85904990D01*
X87371276Y-85381180D02*
X87704609Y-86381180D01*
X88037942Y-85381180D01*
X88895085Y-86381180D02*
X88323657Y-86381180D01*
X88609371Y-86381180D02*
X88609371Y-85381180D01*
X88514133Y-85524038D01*
X88418895Y-85619276D01*
X88323657Y-85666895D01*
%TO.C,U1*%
X123713095Y-91937380D02*
X123713095Y-92746904D01*
X123760714Y-92842142D01*
X123808333Y-92889761D01*
X123903571Y-92937380D01*
X124094047Y-92937380D01*
X124189285Y-92889761D01*
X124236904Y-92842142D01*
X124284523Y-92746904D01*
X124284523Y-91937380D01*
X125284523Y-92937380D02*
X124713095Y-92937380D01*
X124998809Y-92937380D02*
X124998809Y-91937380D01*
X124903571Y-92080238D01*
X124808333Y-92175476D01*
X124713095Y-92223095D01*
%TO.C,J1*%
X98726666Y-65492380D02*
X98726666Y-66206666D01*
X98679047Y-66349523D01*
X98583809Y-66444761D01*
X98440952Y-66492380D01*
X98345714Y-66492380D01*
X99726666Y-66492380D02*
X99155238Y-66492380D01*
X99440952Y-66492380D02*
X99440952Y-65492380D01*
X99345714Y-65635238D01*
X99250476Y-65730476D01*
X99155238Y-65778095D01*
D11*
%TO.C,J2*%
X98358000Y-87630000D02*
X98358000Y-74870000D01*
X98358000Y-74870000D02*
X95698000Y-74870000D01*
X95698000Y-87630000D02*
X95698000Y-74870000D01*
X98358000Y-90230000D02*
X97028000Y-90230000D01*
X98358000Y-87630000D02*
X95698000Y-87630000D01*
X98358000Y-88900000D02*
X98358000Y-90230000D01*
%TO.C,RV1*%
X81060800Y-74558800D02*
X71060800Y-74558800D01*
X86060800Y-84798800D02*
X86060800Y-68558800D01*
X86060800Y-80298800D02*
X86060800Y-73058800D01*
X81060800Y-78798800D02*
X81060800Y-74558800D01*
X81060800Y-78798800D02*
X71060800Y-78798800D01*
X93800800Y-84798800D02*
X93800800Y-68558800D01*
X86060800Y-80298800D02*
X81060800Y-80298800D01*
X93800800Y-84798800D02*
X86060800Y-84798800D01*
X71060800Y-78798800D02*
X71060800Y-74558800D01*
X81060800Y-80298800D02*
X81060800Y-73058800D01*
X86060800Y-73058800D02*
X81060800Y-73058800D01*
X93800800Y-68558800D02*
X86060800Y-68558800D01*
%TO.C,U1*%
X122225000Y-91485000D02*
X123475000Y-91485000D01*
X122225000Y-71045000D02*
X122225000Y-91485000D01*
X126725000Y-91485000D02*
X126725000Y-71045000D01*
X126725000Y-71045000D02*
X122225000Y-71045000D01*
X125475000Y-91485000D02*
X126725000Y-91485000D01*
X125475000Y-91485000D02*
G75*
G03*
X123475000Y-91485000I-1000000J0D01*
G01*
%TO.C,J1*%
X100330000Y-64830000D02*
X138490000Y-64830000D01*
X97730000Y-63500000D02*
X97730000Y-62170000D01*
X100330000Y-62170000D02*
X138490000Y-62170000D01*
X100330000Y-64830000D02*
X100330000Y-62170000D01*
X97730000Y-62170000D02*
X99060000Y-62170000D01*
X138490000Y-64830000D02*
X138490000Y-62170000D01*
%TD*%
M02*
