M48
; DRILL file {KiCad (6.0.7)} date Thu May 11 09:52:48 2023
; FORMAT={-:-/ absolute / inch / decimal}
; #@! TF.CreationDate,2023-05-11T09:52:48+08:00
; #@! TF.GenerationSoftware,Kicad,Pcbnew,(6.0.7)
; #@! TF.FileFunction,Plated,1,2,PTH
FMAT,2
INCH
; #@! TA.AperFunction,Plated,PTH,ViaDrill
T1C0.0157
; #@! TA.AperFunction,Plated,PTH,ComponentDrill
T2C0.0315
; #@! TA.AperFunction,Plated,PTH,ComponentDrill
T3C0.0394
; #@! TA.AperFunction,Plated,PTH,ComponentDrill
T4C0.0512
%
G90
G05
T1
X3.938Y-2.656
X4.102Y-2.656
X4.266Y-3.198
X4.356Y-2.638
X4.4Y-2.602
X4.4Y-3.046
X4.4Y-3.15
X4.664Y-3.196
X4.666Y-3.148
X4.676Y-3.048
X5.174Y-2.848
X5.174Y-3.632
X5.26Y-2.6
X5.302Y-2.634
T2
X4.7506Y-2.8494
X4.7506Y-2.9494
X4.7506Y-3.0494
X4.7506Y-3.1494
X4.7506Y-3.2494
X4.7506Y-3.3494
X4.7506Y-3.4494
X4.7506Y-3.5494
X5.0506Y-2.8494
X5.0506Y-2.9494
X5.0506Y-3.0494
X5.0506Y-3.1494
X5.0506Y-3.2494
X5.0506Y-3.3494
X5.0506Y-3.4494
X5.0506Y-3.5494
T3
X3.82Y-3.0
X3.82Y-3.1
X3.82Y-3.2
X3.82Y-3.3
X3.82Y-3.4
X3.82Y-3.5
X3.9Y-2.5
X4.0Y-2.5
X4.1Y-2.5
X4.2Y-2.5
X4.3Y-2.5
X4.4Y-2.5
X4.5Y-2.5
X4.6Y-2.5
X4.7Y-2.5
X4.8Y-2.5
X4.9Y-2.5
X5.0Y-2.5
X5.1Y-2.5
X5.2Y-2.5
X5.3Y-2.5
X5.4Y-2.5
T4
X3.452Y-2.822
X3.452Y-3.0189
X3.452Y-3.2157
T0
M30
