%TF.GenerationSoftware,KiCad,Pcbnew,(6.0.7)*%
%TF.CreationDate,2023-05-11T09:52:43+08:00*%
%TF.ProjectId,ST7920 test,53543739-3230-4207-9465-73742e6b6963,rev?*%
%TF.SameCoordinates,Original*%
%TF.FileFunction,Copper,L1,Top*%
%TF.FilePolarity,Positive*%
%FSLAX46Y46*%
G04 Gerber Fmt 4.6, Leading zero omitted, Abs format (unit mm)*
G04 Created by KiCad (PCBNEW (6.0.7)) date 2023-05-11 09:52:43*
%MOMM*%
%LPD*%
G01*
G04 APERTURE LIST*
%TA.AperFunction,ComponentPad*%
%ADD10R,1.700000X1.700000*%
%TD*%
%TA.AperFunction,ComponentPad*%
%ADD11O,1.700000X1.700000*%
%TD*%
%TA.AperFunction,ComponentPad*%
%ADD12C,2.340000*%
%TD*%
%TA.AperFunction,ComponentPad*%
%ADD13R,2.400000X1.600000*%
%TD*%
%TA.AperFunction,ComponentPad*%
%ADD14O,2.400000X1.600000*%
%TD*%
%TA.AperFunction,ViaPad*%
%ADD15C,0.800000*%
%TD*%
%TA.AperFunction,Conductor*%
%ADD16C,0.762000*%
%TD*%
G04 APERTURE END LIST*
D10*
%TO.P,J2,1,Pin_1*%
%TO.N,/GND*%
X97028000Y-88900000D03*
D11*
%TO.P,J2,2,Pin_2*%
%TO.N,/latch*%
X97028000Y-86360000D03*
%TO.P,J2,3,Pin_3*%
%TO.N,/SR clk*%
X97028000Y-83820000D03*
%TO.P,J2,4,Pin_4*%
%TO.N,/Data in*%
X97028000Y-81280000D03*
%TO.P,J2,5,Pin_5*%
%TO.N,/3.3V*%
X97028000Y-78740000D03*
%TO.P,J2,6,Pin_6*%
%TO.N,/5V*%
X97028000Y-76200000D03*
%TD*%
D12*
%TO.P,RV1,1,1*%
%TO.N,/5V*%
X87680800Y-71678800D03*
%TO.P,RV1,2,2*%
%TO.N,/Vref*%
X87680800Y-76678800D03*
%TO.P,RV1,3,3*%
%TO.N,/GND*%
X87680800Y-81678800D03*
%TD*%
D13*
%TO.P,U1,1,QB*%
%TO.N,/R{slash}W*%
X128285000Y-90155000D03*
D14*
%TO.P,U1,2,QC*%
%TO.N,/Enable*%
X128285000Y-87615000D03*
%TO.P,U1,3,QD*%
%TO.N,unconnected-(U1-Pad3)*%
X128285000Y-85075000D03*
%TO.P,U1,4,QE*%
%TO.N,/DB4*%
X128285000Y-82535000D03*
%TO.P,U1,5,QF*%
%TO.N,/DB5*%
X128285000Y-79995000D03*
%TO.P,U1,6,QG*%
%TO.N,/DB6*%
X128285000Y-77455000D03*
%TO.P,U1,7,QH*%
%TO.N,/DB7*%
X128285000Y-74915000D03*
%TO.P,U1,8,GND*%
%TO.N,/GND*%
X128285000Y-72375000D03*
%TO.P,U1,9,QH'*%
%TO.N,unconnected-(U1-Pad9)*%
X120665000Y-72375000D03*
%TO.P,U1,10,~{SRCLR}*%
%TO.N,unconnected-(U1-Pad10)*%
X120665000Y-74915000D03*
%TO.P,U1,11,SRCLK*%
%TO.N,/SR clk*%
X120665000Y-77455000D03*
%TO.P,U1,12,RCLK*%
%TO.N,/latch*%
X120665000Y-79995000D03*
%TO.P,U1,13,~{OE}*%
%TO.N,unconnected-(U1-Pad13)*%
X120665000Y-82535000D03*
%TO.P,U1,14,SER*%
%TO.N,/Data in*%
X120665000Y-85075000D03*
%TO.P,U1,15,QA*%
%TO.N,/RS*%
X120665000Y-87615000D03*
%TO.P,U1,16,VCC*%
%TO.N,/3.3V*%
X120665000Y-90155000D03*
%TD*%
D10*
%TO.P,J1,1,Pin_1*%
%TO.N,/GND*%
X99060000Y-63500000D03*
D11*
%TO.P,J1,2,Pin_2*%
%TO.N,/3.3V*%
X101600000Y-63500000D03*
%TO.P,J1,3,Pin_3*%
%TO.N,/Vref*%
X104140000Y-63500000D03*
%TO.P,J1,4,Pin_4*%
%TO.N,/RS*%
X106680000Y-63500000D03*
%TO.P,J1,5,Pin_5*%
%TO.N,/R{slash}W*%
X109220000Y-63500000D03*
%TO.P,J1,6,Pin_6*%
%TO.N,/Enable*%
X111760000Y-63500000D03*
%TO.P,J1,7,Pin_7*%
%TO.N,unconnected-(J1-Pad7)*%
X114300000Y-63500000D03*
%TO.P,J1,8,Pin_8*%
%TO.N,unconnected-(J1-Pad8)*%
X116840000Y-63500000D03*
%TO.P,J1,9,Pin_9*%
%TO.N,unconnected-(J1-Pad9)*%
X119380000Y-63500000D03*
%TO.P,J1,10,Pin_10*%
%TO.N,unconnected-(J1-Pad10)*%
X121920000Y-63500000D03*
%TO.P,J1,11,Pin_11*%
%TO.N,/DB4*%
X124460000Y-63500000D03*
%TO.P,J1,12,Pin_12*%
%TO.N,/DB5*%
X127000000Y-63500000D03*
%TO.P,J1,13,Pin_13*%
%TO.N,/DB6*%
X129540000Y-63500000D03*
%TO.P,J1,14,Pin_14*%
%TO.N,/DB7*%
X132080000Y-63500000D03*
%TO.P,J1,15,Pin_15*%
%TO.N,unconnected-(J1-Pad15)*%
X134620000Y-63500000D03*
%TO.P,J1,16,Pin_16*%
%TO.N,unconnected-(J1-Pad16)*%
X137160000Y-63500000D03*
%TD*%
D15*
%TO.N,/GND*%
X131419600Y-72339200D03*
X131419600Y-92252800D03*
%TO.N,/Vref*%
X104190800Y-67462400D03*
X100025200Y-67462400D03*
%TO.N,/R{slash}W*%
X110642400Y-67005200D03*
X134670800Y-66903600D03*
%TO.N,/Enable*%
X133604000Y-66040000D03*
X111760000Y-66090800D03*
%TO.N,/latch*%
X111760000Y-80010000D03*
X118516400Y-79959200D03*
%TO.N,/SR clk*%
X111760000Y-77368400D03*
X118770400Y-77419200D03*
%TO.N,/Data in*%
X108356400Y-81229200D03*
X118465600Y-81178400D03*
%TD*%
D16*
%TO.N,/GND*%
X131419600Y-72339200D02*
X131419600Y-92252800D01*
%TO.N,/Vref*%
X100025200Y-67462400D02*
X104190800Y-67462400D01*
%TO.N,/R{slash}W*%
X134502600Y-67071800D02*
X110709000Y-67071800D01*
X110709000Y-67071800D02*
X110642400Y-67005200D01*
X134670800Y-66903600D02*
X134502600Y-67071800D01*
%TO.N,/Enable*%
X133604000Y-66040000D02*
X112369600Y-66040000D01*
X111810800Y-66040000D02*
X111760000Y-66090800D01*
X112369600Y-66040000D02*
X111810800Y-66040000D01*
%TO.N,/latch*%
X118465600Y-80010000D02*
X118516400Y-79959200D01*
X111760000Y-80010000D02*
X118465600Y-80010000D01*
%TO.N,/SR clk*%
X118770400Y-77419200D02*
X111810800Y-77419200D01*
X111810800Y-77419200D02*
X111760000Y-77368400D01*
%TO.N,/Data in*%
X108356400Y-81229200D02*
X116992400Y-81229200D01*
X118414800Y-81229200D02*
X118465600Y-81178400D01*
X116992400Y-81229200D02*
X118414800Y-81229200D01*
%TD*%
M02*
